<?xml version="1.0" standalone="no"?>
<!DOCTYPE svg PUBLIC "-//W3C//DTD SVG 20010904//EN"
 "http://www.w3.org/TR/2001/REC-SVG-20010904/DTD/svg10.dtd">
<svg version="1.0" xmlns="http://www.w3.org/2000/svg"
 width="64.000000pt" height="64.000000pt" viewBox="0 0 64.000000 64.000000"
 preserveAspectRatio="xMidYMid meet">
<metadata>
Created by potrace 1.13, written by Peter Selinger 2001-2015
</metadata>
94,158
<g transform="translate(0.000000,64.000000) scale(0.100000,-0.100000)"
fill="#005e9e" stroke="none">
<path d="M26 614 c-24 -25 -26 -33 -26 -115 l0 -89 43 33 c95 72 241 106 333
77 93 -29 164 -116 164 -199 -1 -85 -70 -168 -162 -196 -63 -18 -96 -19 -170
-1 l-58 13 0 -56 c0 -31 5 -62 12 -69 9 -9 72 -12 220 -12 208 0 209 0 233 25
l25 24 0 271 0 271 -25 24 -24 25 -269 0 -269 0 -27 -26z"/>
<path d="M188 473 l-38 -15 0 -139 c0 -158 -5 -149 91 -163 164 -24 272 125
189 262 -31 50 -75 72 -145 71 -33 0 -77 -7 -97 -16z"/>
<path d="M51 391 c-12 -16 -21 -37 -21 -46 0 -11 -5 -15 -15 -11 -13 5 -15
-15 -15 -140 0 -140 1 -146 24 -169 15 -15 31 -22 40 -19 14 5 16 35 16 210 0
112 -2 204 -4 204 -3 0 -14 -13 -25 -29z"/>
</g>
</svg>
